Coordinates
version=1
nRows=26
nColumns=24
inDegrees=yes

Units are S.I. units (second, meters, Newtons, ...)
Angles are in degrees.

endheader
time	pelvis_tilt	pelvis_list	pelvis_rotation	pelvis_tx	pelvis_ty	pelvis_tz	hip_flexion_r	hip_adduction_r	hip_rotation_r	knee_angle_r	ankle_angle_r	subtalar_angle_r	mtp_angle_r	hip_flexion_l	hip_adduction_l	hip_rotation_l	knee_angle_l	ankle_angle_l	subtalar_angle_l	mtp_angle_l	lumbar_extension	lumbar_bending	lumbar_rotation
      4.77000000	     12.29022946	      7.50228212	     -1.98806930	      0.68936263	      0.75141294	     -0.24675890	      5.39748032	    -10.79625410	     -3.05339934	    -69.03203385	     16.53324535	    -11.95827824	      0.00000000	     -0.28671428	     13.21379998	      3.19120897	    -23.07175753	     25.14608949	     -0.97669752	      0.00000000	    -30.86210975	     -4.72987225	      4.47082990
      4.77500000	     12.22136340	      7.50977405	     -1.77048522	      0.69627545	      0.75213615	     -0.24688283	      6.49096698	    -10.68571156	     -3.00813932	    -68.57570464	     17.51791796	    -11.27086184	      0.00000000	     -1.18041656	     13.23495198	      3.69170392	    -22.40426894	     25.32639209	     -1.07982651	      0.00000000	    -30.87455671	     -4.60747019	      3.94019511
      4.78000000	     12.16383161	      7.53749253	     -1.53630843	      0.70320709	      0.75281777	     -0.24703895	      7.53720007	    -10.62227421	     -2.99064677	    -68.00826808	     18.38404613	    -10.55499151	      0.00000000	     -2.10806895	     13.26612235	      4.21489922	    -21.69496860	     25.45118825	     -1.16433425	      0.00000000	    -30.89842523	     -4.49524461	      3.39183881
      4.78500000	     12.11683519	      7.55272826	     -1.29033750	      0.71013104	      0.75342721	     -0.24714545	      8.53367308	    -10.54419242	     -2.98446583	    -67.32754285	     19.18800333	     -9.92281882	      0.00000000	     -3.04194786	     13.26037717	      4.70245975	    -20.99777483	     25.61413092	     -1.21198366	      0.00000000	    -30.93850743	     -4.37897594	      2.81392524
      4.79000000	     12.07696453	      7.57183838	     -1.02346832	      0.71705260	      0.75397040	     -0.24723250	      9.48169545	    -10.47388164	     -2.99008951	    -66.53847798	     19.89529711	     -9.37864151	      0.00000000	     -3.98631015	     13.23493902	      5.15925637	    -20.29431182	     25.78509162	     -1.20224334	      0.00000000	    -30.99357001	     -4.26694099	      2.22642770
      4.79500000	     12.03596212	      7.59121548	     -0.74164867	      0.72397402	      0.75441938	     -0.24730204	     10.39061879	    -10.40531296	     -3.00125313	    -65.64560724	     20.54690233	     -8.97297806	      0.00000000	     -4.92235700	     13.18667504	      5.55455740	    -19.60337766	     25.99528725	     -1.13273808	      0.00000000	    -31.05129730	     -4.15210339	      1.62025597
      4.80000000	     12.01776788	      7.62800296	     -0.44077036	      0.73090766	      0.75482686	     -0.24740481	     11.22975222	    -10.38577894	     -3.04701027	    -64.64592975	     21.07637710	     -8.59646171	      0.00000000	     -5.89495841	     13.14099280	      5.96287785	    -18.89218753	     26.16548241	     -1.01328849	      0.00000000	    -31.13710698	     -4.04324461	      0.99411057
      4.80500000	     12.01108285	      7.67118272	     -0.12050079	      0.73783872	      0.75516139	     -0.24748572	     12.01067580	    -10.37855692	     -3.10732313	    -63.54330864	     21.52558204	     -8.33282486	      0.00000000	     -6.87841461	     13.07979638	      6.33362942	    -18.18337834	     26.34670290	     -0.85581283	      0.00000000	    -31.24137694	     -3.94138573	      0.34885481
      4.81000000	     12.00608061	      7.72552885	      0.21602199	      0.74476319	      0.75541093	     -0.24756177	     12.74720678	    -10.39541925	     -3.17877708	    -62.34542321	     21.89950184	     -8.19035641	      0.00000000	     -7.85752121	     13.00857925	      6.65943352	    -17.48379796	     26.53589501	     -0.64548229	      0.00000000	    -31.35651574	     -3.84855371	     -0.30628576
      4.81500000	     12.02027135	      7.78914255	      0.57525026	      0.75168106	      0.75559735	     -0.24765589	     13.41216973	    -10.43963488	     -3.27380565	    -61.04478060	     22.19290509	     -8.12544039	      0.00000000	     -8.85281385	     12.92855265	      6.96797719	    -16.79574843	     26.72926692	     -0.38439837	      0.00000000	    -31.49803335	     -3.75105182	     -0.97387939
      4.82000000	     12.03588370	      7.86549283	      0.94522924	      0.75859380	      0.75569721	     -0.24774436	     14.03139271	    -10.51091732	     -3.37887810	    -59.65172325	     22.42217466	     -8.15508834	      0.00000000	     -9.84155744	     12.84391439	      7.23635843	    -16.12227284	     26.92852774	     -0.08373054	      0.00000000	    -31.64930108	     -3.66600758	     -1.64780830
      4.82500000	     12.05266106	      7.96830175	      1.34567630	      0.76549185	      0.75571535	     -0.24782895	     14.59524357	    -10.62762474	     -3.51533558	    -58.16066883	     22.61165231	     -8.27337426	      0.00000000	    -10.81831491	     12.76427406	      7.47032643	    -15.47610559	     27.12979878	      0.25981547	      0.00000000	    -31.81128095	     -3.60104161	     -2.34717527
      4.83000000	     12.09001922	      8.07154111	      1.76033696	      0.77238053	      0.75567417	     -0.24793042	     15.08386328	    -10.76420202	     -3.67467910	    -56.57208291	     22.72728190	     -8.42419953	      0.00000000	    -11.80931299	     12.66907298	      7.69666669	    -14.84871266	     27.34250094	      0.64213974	      0.00000000	    -32.00459975	     -3.52530431	     -3.04535860
      4.83500000	     12.13287856	      8.19631207	      2.19008657	      0.77926238	      0.75555301	     -0.24802201	     15.51494092	    -10.93975881	     -3.85780604	    -54.89414308	     22.79775675	     -8.61392398	      0.00000000	    -12.79229580	     12.57841811	      7.88768426	    -14.25237739	     27.56244970	      1.04975271	      0.00000000	    -32.21302508	     -3.46880707	     -3.75647897
      4.84000000	     12.20349082	      8.30677345	      2.62535953	      0.78615314	      0.75539328	     -0.24813509	     15.85195976	    -11.11580740	     -4.06257309	    -53.10562006	     22.82102347	     -8.78788241	      0.00000000	    -13.80284040	     12.45737948	      8.06650209	    -13.66121898	     27.79767161	      1.49813281	      0.00000000	    -32.45543673	     -3.38506473	     -4.42406841
      4.84500000	     12.21219227	      8.51709243	      3.08102913	      0.79299983	      0.75506046	     -0.24825677	     16.22891190	    -11.42472539	     -4.27840458	    -51.27870504	     22.83726725	     -9.00577298	      0.00000000	    -14.71036153	     12.43300959	      8.20145835	    -13.15305638	     27.99334579	      1.92993696	      0.00000000	    -32.64623482	     -3.40025127	     -5.17238190
      4.85000000	     12.30064975	      8.65341783	      3.55120210	      0.79989192	      0.75476943	     -0.24836262	     16.42415662	    -11.66475064	     -4.56663366	    -49.30755350	     22.81637009	     -9.11414964	      0.00000000	    -15.71218321	     12.30111478	      8.33683923	    -12.62937635	     28.23698781	      2.41684376	      0.00000000	    -32.92108408	     -3.32844639	     -5.83788471
      4.85500000	     12.33888045	      8.86161343	      4.03380358	      0.80675889	      0.75433405	     -0.24848059	     16.63825156	    -12.00114224	     -4.85993614	    -47.29545829	     22.76772474	     -9.17691080	      0.00000000	    -16.63260567	     12.23905540	      8.48308900	    -12.17641459	     28.46941321	      2.90336461	      0.00000000	    -33.15569287	     -3.32584305	     -6.54727926
      4.86000000	     12.37929321	      9.09210608	      4.53261646	      0.81362717	      0.75382985	     -0.24859785	     16.79086373	    -12.37660058	     -5.19221899	    -45.21480329	     22.71568768	     -9.14053875	      0.00000000	    -17.54306165	     12.18200410	      8.60824812	    -11.75688995	     28.69716784	      3.39286771	      0.00000000	    -33.40102517	     -3.33813425	     -7.25465630
      4.86500000	     12.39519884	      9.37423227	      5.03796120	      0.82049328	      0.75322621	     -0.24870772	     16.92053970	    -12.82554280	     -5.56504301	    -43.08295708	     22.64436944	     -9.02240623	      0.00000000	    -18.39812395	     12.16956046	      8.72132452	    -11.41752572	     28.92288841	      3.87319741	      0.00000000	    -33.62935865	     -3.40056355	     -7.98827044
      4.87000000	     12.43440463	      9.62480629	      5.56087623	      0.82741811	      0.75259791	     -0.24882287	     16.94454001	    -13.24945735	     -6.00104493	    -40.87054677	     22.59314364	     -8.69057820	      0.00000000	    -19.27893004	     12.10038629	      8.84684567	    -11.08623010	     29.16860554	      4.38413232	      0.00000000	    -33.87609228	     -3.41803534	     -8.67148746
      4.87500000	     12.48024693	      9.88929216	      6.07867705	      0.83438559	      0.75191130	     -0.24891950	     16.90291861	    -13.69204680	     -6.47592477	    -38.61174944	     22.56019841	     -8.17151410	      0.00000000	    -20.15223444	     12.03239635	      8.96567975	    -10.80048263	     29.42398881	      4.90468126	      0.00000000	    -34.12850667	     -3.44971300	     -9.32118529
      4.88000000	     12.51275122	     10.16170788	      6.59961008	      0.84138119	      0.75114902	     -0.24899080	     16.82395806	    -14.14516288	     -6.98880121	    -36.32785182	     22.54242963	     -7.46217690	      0.00000000	    -20.99453311	     11.95723409	      9.08208203	    -10.55704293	     29.68047084	      5.42937807	      0.00000000	    -34.36729112	     -3.49207547	     -9.94986273
      4.88500000	     12.53636164	     10.43964300	      7.13057057	      0.84844675	      0.75032802	     -0.24904740	     16.69372992	    -14.60457367	     -7.55359562	    -34.02501771	     22.54898952	     -6.54094286	      0.00000000	    -21.81032591	     11.87080566	      9.19930497	    -10.36872298	     29.94962152	      5.96350055	      0.00000000	    -34.58951083	     -3.53894759	    -10.54869011
      4.89000000	     12.55740253	     10.70688174	      7.63451580	      0.85557727	      0.74944422	     -0.24905101	     16.52923201	    -15.04297259	     -8.15296030	    -31.72599685	     22.59081468	     -5.39173646	      0.00000000	    -22.60749056	     11.76694662	      9.32157641	    -10.21680785	     30.22338469	      6.50146793	      0.00000000	    -34.79731645	     -3.59082584	    -11.09779760
      4.89500000	     12.56062506	     10.97266365	      8.14753461	      0.86278020	      0.74849812	     -0.24906205	     16.33712042	    -15.47486240	     -8.77996472	    -29.45137651	     22.64230917	     -4.05033841	      0.00000000	    -23.36522546	     11.64906643	      9.44207177	    -10.12054446	     30.50491580	      7.04583196	      0.00000000	    -34.97290718	     -3.63315868	    -11.61340100
